<svg width="28" height="29" viewBox="0 0 28 29" fill="none" xmlns="http://www.w3.org/2000/svg">
<path fill-rule="evenodd" clip-rule="evenodd" d="M17.4055 4C17.5642 5.06342 17.1285 6.10408 16.5539 6.84083C15.9385 7.63067 14.8785 8.242 13.8548 8.20992C13.6681 7.192 14.1482 6.14492 14.7298 5.43908C15.3709 4.66092 16.4675 4.06417 17.4055 4ZM20.3216 19.6724C20.8513 18.8674 21.0479 18.4614 21.4591 17.5503C18.4736 16.4215 17.9935 12.2023 20.9487 10.5823C20.0463 9.45825 18.7805 8.80784 17.5858 8.80784C16.7233 8.80784 16.1326 9.0313 15.5957 9.2344C15.1485 9.40356 14.7387 9.55859 14.2404 9.55859C13.7019 9.55859 13.2249 9.38854 12.7252 9.21043C12.1758 9.01459 11.5991 8.809 10.8833 8.809C9.54046 8.809 8.11246 9.62392 7.20713 11.0181C5.93371 12.9787 6.14954 16.6677 8.21454 19.8107C8.95304 20.9353 9.93887 22.1994 11.2292 22.2111C11.7635 22.2163 12.1192 22.0578 12.5044 21.8862C12.9454 21.6897 13.425 21.4761 14.2555 21.4714C15.0912 21.4667 15.563 21.6827 15.9984 21.882C16.3735 22.0537 16.7216 22.213 17.2521 22.2082C18.5425 22.1965 19.5837 20.7965 20.3216 19.6724Z" fill="white"/>
</svg>
