<svg width="149" height="15" viewBox="0 0 149 15" fill="none" xmlns="http://www.w3.org/2000/svg">
<path d="M1.39045 14.5C1.24904 14.5 1.13978 14.4614 1.06265 14.3843C0.985517 14.2943 0.946953 14.1851 0.946953 14.0565V1.46518C0.946953 1.32377 0.985517 1.21451 1.06265 1.13738C1.13978 1.04739 1.24904 1.0024 1.39045 1.0024H9.35403C9.49543 1.0024 9.6047 1.04739 9.68183 1.13738C9.75896 1.21451 9.79752 1.32377 9.79752 1.46518V2.1979C9.79752 2.33931 9.75896 2.44857 9.68183 2.5257C9.6047 2.60283 9.49543 2.6414 9.35403 2.6414H2.79805V6.86422H8.92982C9.07122 6.86422 9.18049 6.90921 9.25762 6.99919C9.33475 7.07632 9.37331 7.18559 9.37331 7.32699V8.04044C9.37331 8.16898 9.33475 8.27825 9.25762 8.36823C9.18049 8.44536 9.07122 8.48393 8.92982 8.48393H2.79805V12.861H9.50829C9.64969 12.861 9.75896 12.8996 9.83609 12.9767C9.91321 13.0538 9.95178 13.1631 9.95178 13.3045V14.0565C9.95178 14.1851 9.91321 14.2943 9.83609 14.3843C9.75896 14.4614 9.64969 14.5 9.50829 14.5H1.39045ZM11.7343 14.5C11.6315 14.5 11.5415 14.4614 11.4644 14.3843C11.3873 14.3072 11.3487 14.2172 11.3487 14.1144C11.3487 14.0501 11.3551 13.9794 11.368 13.9022L16.15 1.42661C16.2014 1.29806 16.2721 1.19523 16.3621 1.1181C16.4521 1.04097 16.587 1.0024 16.767 1.0024H18.0782C18.2453 1.0024 18.3739 1.04097 18.4639 1.1181C18.5667 1.19523 18.6438 1.29806 18.6952 1.42661L23.458 13.9022C23.4837 13.9794 23.4965 14.0501 23.4965 14.1144C23.4965 14.2172 23.458 14.3072 23.3808 14.3843C23.3037 14.4614 23.2137 14.5 23.1109 14.5H22.1275C21.9732 14.5 21.8575 14.4614 21.7804 14.3843C21.7161 14.3072 21.6711 14.2365 21.6454 14.1722L20.5849 11.4341H14.2603L13.1998 14.1722C13.1869 14.2365 13.1419 14.3072 13.0648 14.3843C12.9877 14.4614 12.872 14.5 12.7177 14.5H11.7343ZM14.8195 9.77584H20.0257L17.4226 2.93063L14.8195 9.77584ZM29.7084 14.6928C28.5901 14.6928 27.6517 14.5257 26.8932 14.1915C26.1348 13.8444 25.5499 13.4009 25.1385 12.861C24.74 12.3082 24.5279 11.7234 24.5022 11.1063C24.5022 11.0035 24.5408 10.9135 24.6179 10.8364C24.7079 10.7464 24.8107 10.7014 24.9264 10.7014H25.9098C26.0641 10.7014 26.1798 10.74 26.2569 10.8171C26.334 10.8942 26.3855 10.9842 26.4112 11.087C26.4754 11.3956 26.6297 11.7041 26.8739 12.0126C27.131 12.3082 27.4845 12.5589 27.9345 12.7646C28.3972 12.9574 28.9886 13.0538 29.7084 13.0538C30.814 13.0538 31.6238 12.861 32.138 12.4754C32.6651 12.0769 32.9286 11.5498 32.9286 10.8942C32.9286 10.4443 32.7872 10.0844 32.5044 9.81441C32.2344 9.5316 31.8166 9.28093 31.251 9.0624C30.6854 8.84386 29.9527 8.60605 29.0528 8.34895C28.1144 8.079 27.3367 7.78334 26.7197 7.46197C26.1026 7.1406 25.6399 6.74209 25.3314 6.26647C25.0357 5.79084 24.8879 5.18666 24.8879 4.45393C24.8879 3.75977 25.0743 3.14274 25.447 2.60283C25.8198 2.05007 26.3533 1.61301 27.0475 1.29164C27.7545 0.970265 28.6093 0.809579 29.612 0.809579C30.409 0.809579 31.1032 0.918846 31.6945 1.13738C32.2987 1.34306 32.8 1.62586 33.1985 1.9858C33.597 2.33288 33.8991 2.7121 34.1048 3.12345C34.3105 3.52195 34.4197 3.91403 34.4326 4.29967C34.4326 4.38966 34.4005 4.47964 34.3362 4.56962C34.2719 4.64675 34.1691 4.68532 34.0277 4.68532H33.0057C32.9157 4.68532 32.8193 4.65961 32.7165 4.60819C32.6265 4.55677 32.5558 4.46036 32.5044 4.31896C32.4272 3.79191 32.1316 3.34841 31.6174 2.98848C31.1032 2.62854 30.4347 2.44857 29.612 2.44857C28.7765 2.44857 28.0951 2.60926 27.5681 2.93063C27.0539 3.252 26.7968 3.75334 26.7968 4.43465C26.7968 4.87171 26.9189 5.23808 27.1632 5.53374C27.4074 5.81655 27.7931 6.06721 28.3201 6.28575C28.8472 6.50428 29.5349 6.73567 30.3833 6.97991C31.4117 7.26272 32.2537 7.56481 32.9093 7.88618C33.5649 8.19469 34.0469 8.58677 34.3555 9.0624C34.6768 9.52517 34.8375 10.1229 34.8375 10.8556C34.8375 11.6655 34.6254 12.3597 34.2012 12.9381C33.777 13.5037 33.1792 13.9408 32.408 14.2493C31.6495 14.545 30.7497 14.6928 29.7084 14.6928ZM40.9245 14.5C40.796 14.5 40.6867 14.4614 40.5967 14.3843C40.5196 14.2943 40.4811 14.1851 40.4811 14.0565V9.50589L35.834 1.63872C35.8212 1.60015 35.8083 1.56159 35.7955 1.52302C35.7826 1.48446 35.7762 1.43947 35.7762 1.38805C35.7762 1.28521 35.8147 1.19523 35.8919 1.1181C35.969 1.04097 36.059 1.0024 36.1618 1.0024H37.1645C37.2802 1.0024 37.383 1.03454 37.473 1.09881C37.563 1.15023 37.6273 1.22736 37.6658 1.3302L41.4259 7.57766L45.1859 1.3302C45.2502 1.22736 45.3209 1.15023 45.398 1.09881C45.488 1.03454 45.5909 1.0024 45.7066 1.0024H46.6899C46.8056 1.0024 46.9021 1.04097 46.9792 1.1181C47.0563 1.19523 47.0949 1.28521 47.0949 1.38805C47.0949 1.43947 47.0884 1.48446 47.0756 1.52302C47.0627 1.56159 47.0435 1.60015 47.0177 1.63872L42.39 9.50589V14.0565C42.39 14.1851 42.345 14.2943 42.255 14.3843C42.1779 14.4614 42.0686 14.5 41.9272 14.5H40.9245ZM53.9648 14.5C53.8234 14.5 53.7141 14.4614 53.637 14.3843C53.5599 14.2943 53.5213 14.1851 53.5213 14.0565V1.46518C53.5213 1.32377 53.5599 1.21451 53.637 1.13738C53.7141 1.04739 53.8234 1.0024 53.9648 1.0024H61.9284C62.0698 1.0024 62.179 1.04739 62.2562 1.13738C62.3333 1.21451 62.3719 1.32377 62.3719 1.46518V2.1979C62.3719 2.33931 62.3333 2.44857 62.2562 2.5257C62.179 2.60283 62.0698 2.6414 61.9284 2.6414H55.3724V6.86422H61.5042C61.6456 6.86422 61.7548 6.90921 61.832 6.99919C61.9091 7.07632 61.9477 7.18559 61.9477 7.32699V8.04044C61.9477 8.16898 61.9091 8.27825 61.832 8.36823C61.7548 8.44536 61.6456 8.48393 61.5042 8.48393H55.3724V12.861H62.0826C62.224 12.861 62.3333 12.8996 62.4104 12.9767C62.4876 13.0538 62.5261 13.1631 62.5261 13.3045V14.0565C62.5261 14.1851 62.4876 14.2943 62.4104 14.3843C62.3333 14.4614 62.224 14.5 62.0826 14.5H53.9648ZM64.4051 14.5C64.3023 14.5 64.2058 14.4614 64.1159 14.3843C64.0387 14.3072 64.0002 14.2172 64.0002 14.1144C64.0002 14.0629 64.0066 14.0179 64.0194 13.9794C64.0452 13.928 64.0644 13.8894 64.0773 13.8637L68.4929 7.63551L64.2894 1.63872C64.2508 1.56159 64.2316 1.47803 64.2316 1.38805C64.2316 1.28521 64.2701 1.19523 64.3472 1.1181C64.4244 1.04097 64.5144 1.0024 64.6172 1.0024H65.7741C65.9027 1.0024 66.0055 1.03454 66.0827 1.09881C66.1598 1.15023 66.2305 1.22736 66.2948 1.3302L69.6884 6.15077L73.0628 1.3302C73.1143 1.22736 73.1785 1.15023 73.2557 1.09881C73.3456 1.03454 73.4485 1.0024 73.5642 1.0024H74.6633C74.7661 1.0024 74.8561 1.04097 74.9332 1.1181C75.0103 1.19523 75.0489 1.28521 75.0489 1.38805C75.0489 1.47803 75.0232 1.56159 74.9718 1.63872L70.8261 7.65479L75.2225 13.8637C75.2482 13.8894 75.2674 13.928 75.2803 13.9794C75.2932 14.0179 75.2996 14.0629 75.2996 14.1144C75.2996 14.2172 75.261 14.3072 75.1839 14.3843C75.1068 14.4614 75.0104 14.5 74.8947 14.5H73.7184C73.6027 14.5 73.4999 14.4679 73.4099 14.4036C73.3328 14.3393 73.2621 14.2686 73.1978 14.1915L69.6113 9.17809L66.0441 14.1915C65.9798 14.2686 65.9091 14.3393 65.832 14.4036C65.7549 14.4679 65.652 14.5 65.5235 14.5H64.4051ZM77.8605 14.5C77.7191 14.5 77.6098 14.4614 77.5327 14.3843C77.4556 14.2943 77.417 14.1851 77.417 14.0565V1.46518C77.417 1.32377 77.4556 1.21451 77.5327 1.13738C77.6098 1.04739 77.7191 1.0024 77.8605 1.0024H82.7582C83.7095 1.0024 84.5322 1.15666 85.2263 1.46518C85.9334 1.77369 86.4797 2.23647 86.8653 2.8535C87.251 3.45768 87.4438 4.21612 87.4438 5.12881C87.4438 6.04151 87.251 6.79994 86.8653 7.40412C86.4797 8.0083 85.9334 8.46465 85.2263 8.77316C84.5322 9.08168 83.7095 9.23594 82.7582 9.23594H79.3452V14.0565C79.3452 14.1851 79.3003 14.2943 79.2103 14.3843C79.1331 14.4614 79.0239 14.5 78.8825 14.5H77.8605ZM79.326 7.61622H82.6618C83.6131 7.61622 84.3265 7.40412 84.8021 6.97991C85.2778 6.5557 85.5156 5.93867 85.5156 5.12881C85.5156 4.33181 85.2842 3.71478 84.8214 3.27771C84.3586 2.84065 83.6388 2.62211 82.6618 2.62211H79.326V7.61622ZM90.2321 14.5C90.0906 14.5 89.9814 14.4614 89.9043 14.3843C89.8271 14.2943 89.7886 14.1851 89.7886 14.0565V1.46518C89.7886 1.32377 89.8271 1.21451 89.9043 1.13738C89.9814 1.04739 90.0906 1.0024 90.2321 1.0024H98.1956C98.337 1.0024 98.4463 1.04739 98.5234 1.13738C98.6006 1.21451 98.6391 1.32377 98.6391 1.46518V2.1979C98.6391 2.33931 98.6006 2.44857 98.5234 2.5257C98.4463 2.60283 98.337 2.6414 98.1956 2.6414H91.6397V6.86422H97.7714C97.9128 6.86422 98.0221 6.90921 98.0992 6.99919C98.1764 7.07632 98.2149 7.18559 98.2149 7.32699V8.04044C98.2149 8.16898 98.1764 8.27825 98.0992 8.36823C98.0221 8.44536 97.9128 8.48393 97.7714 8.48393H91.6397V12.861H98.3499C98.4913 12.861 98.6006 12.8996 98.6777 12.9767C98.7548 13.0538 98.7934 13.1631 98.7934 13.3045V14.0565C98.7934 14.1851 98.7548 14.2943 98.6777 14.3843C98.6006 14.4614 98.4913 14.5 98.3499 14.5H90.2321ZM101.926 14.5C101.784 14.5 101.675 14.4614 101.598 14.3843C101.521 14.2943 101.482 14.1851 101.482 14.0565V1.46518C101.482 1.32377 101.521 1.21451 101.598 1.13738C101.675 1.04739 101.784 1.0024 101.926 1.0024H102.813C102.967 1.0024 103.083 1.04097 103.16 1.1181C103.237 1.18237 103.282 1.23379 103.295 1.27235L109.696 11.1063V1.46518C109.696 1.32377 109.735 1.21451 109.812 1.13738C109.889 1.04739 109.999 1.0024 110.14 1.0024H111.066C111.207 1.0024 111.316 1.04739 111.393 1.13738C111.483 1.21451 111.528 1.32377 111.528 1.46518V14.0372C111.528 14.1658 111.483 14.275 111.393 14.365C111.316 14.455 111.213 14.5 111.085 14.5H110.159C110.018 14.5 109.909 14.4614 109.831 14.3843C109.767 14.3072 109.722 14.2558 109.696 14.23L103.314 4.49249V14.0565C103.314 14.1851 103.269 14.2943 103.179 14.3843C103.102 14.4614 102.993 14.5 102.851 14.5H101.926ZM119.209 14.6928C118.091 14.6928 117.152 14.5257 116.394 14.1915C115.635 13.8444 115.051 13.4009 114.639 12.861C114.241 12.3082 114.029 11.7234 114.003 11.1063C114.003 11.0035 114.041 10.9135 114.119 10.8364C114.209 10.7464 114.311 10.7014 114.427 10.7014H115.41C115.565 10.7014 115.68 10.74 115.758 10.8171C115.835 10.8942 115.886 10.9842 115.912 11.087C115.976 11.3956 116.13 11.7041 116.375 12.0126C116.632 12.3082 116.985 12.5589 117.435 12.7646C117.898 12.9574 118.489 13.0538 119.209 13.0538C120.315 13.0538 121.124 12.861 121.639 12.4754C122.166 12.0769 122.429 11.5498 122.429 10.8942C122.429 10.4443 122.288 10.0844 122.005 9.81441C121.735 9.5316 121.317 9.28093 120.752 9.0624C120.186 8.84386 119.453 8.60605 118.554 8.34895C117.615 8.079 116.837 7.78334 116.22 7.46197C115.603 7.1406 115.141 6.74209 114.832 6.26647C114.536 5.79084 114.389 5.18666 114.389 4.45393C114.389 3.75977 114.575 3.14274 114.948 2.60283C115.321 2.05007 115.854 1.61301 116.548 1.29164C117.255 0.970265 118.11 0.809579 119.113 0.809579C119.91 0.809579 120.604 0.918846 121.195 1.13738C121.799 1.34306 122.301 1.62586 122.699 1.9858C123.098 2.33288 123.4 2.7121 123.605 3.12345C123.811 3.52195 123.92 3.91403 123.933 4.29967C123.933 4.38966 123.901 4.47964 123.837 4.56962C123.773 4.64675 123.67 4.68532 123.528 4.68532H122.506C122.416 4.68532 122.32 4.65961 122.217 4.60819C122.127 4.55677 122.056 4.46036 122.005 4.31896C121.928 3.79191 121.632 3.34841 121.118 2.98848C120.604 2.62854 119.935 2.44857 119.113 2.44857C118.277 2.44857 117.596 2.60926 117.069 2.93063C116.555 3.252 116.297 3.75334 116.297 4.43465C116.297 4.87171 116.42 5.23808 116.664 5.53374C116.908 5.81655 117.294 6.06721 117.821 6.28575C118.348 6.50428 119.036 6.73567 119.884 6.97991C120.912 7.26272 121.754 7.56481 122.41 7.88618C123.066 8.19469 123.548 8.58677 123.856 9.0624C124.178 9.52517 124.338 10.1229 124.338 10.8556C124.338 11.6655 124.126 12.3597 123.702 12.9381C123.278 13.5037 122.68 13.9408 121.909 14.2493C121.15 14.545 120.25 14.6928 119.209 14.6928ZM127.309 14.5C127.168 14.5 127.058 14.4614 126.981 14.3843C126.904 14.2943 126.866 14.1851 126.866 14.0565V1.46518C126.866 1.32377 126.904 1.21451 126.981 1.13738C127.058 1.04739 127.168 1.0024 127.309 1.0024H135.273C135.414 1.0024 135.523 1.04739 135.6 1.13738C135.678 1.21451 135.716 1.32377 135.716 1.46518V2.1979C135.716 2.33931 135.678 2.44857 135.6 2.5257C135.523 2.60283 135.414 2.6414 135.273 2.6414H128.717V6.86422H134.848C134.99 6.86422 135.099 6.90921 135.176 6.99919C135.253 7.07632 135.292 7.18559 135.292 7.32699V8.04044C135.292 8.16898 135.253 8.27825 135.176 8.36823C135.099 8.44536 134.99 8.48393 134.848 8.48393H128.717V12.861H135.427C135.568 12.861 135.678 12.8996 135.755 12.9767C135.832 13.0538 135.87 13.1631 135.87 13.3045V14.0565C135.87 14.1851 135.832 14.2943 135.755 14.3843C135.678 14.4614 135.568 14.5 135.427 14.5H127.309ZM142.898 14.6928C141.779 14.6928 140.841 14.5257 140.082 14.1915C139.324 13.8444 138.739 13.4009 138.328 12.861C137.929 12.3082 137.717 11.7234 137.691 11.1063C137.691 11.0035 137.73 10.9135 137.807 10.8364C137.897 10.7464 138 10.7014 138.116 10.7014H139.099C139.253 10.7014 139.369 10.74 139.446 10.8171C139.523 10.8942 139.575 10.9842 139.6 11.087C139.665 11.3956 139.819 11.7041 140.063 12.0126C140.32 12.3082 140.674 12.5589 141.124 12.7646C141.586 12.9574 142.178 13.0538 142.898 13.0538C144.003 13.0538 144.813 12.861 145.327 12.4754C145.854 12.0769 146.118 11.5498 146.118 10.8942C146.118 10.4443 145.976 10.0844 145.694 9.81441C145.424 9.5316 145.006 9.28093 144.44 9.0624C143.875 8.84386 143.142 8.60605 142.242 8.34895C141.304 8.079 140.526 7.78334 139.909 7.46197C139.292 7.1406 138.829 6.74209 138.521 6.26647C138.225 5.79084 138.077 5.18666 138.077 4.45393C138.077 3.75977 138.264 3.14274 138.636 2.60283C139.009 2.05007 139.543 1.61301 140.237 1.29164C140.944 0.970265 141.799 0.809579 142.801 0.809579C143.598 0.809579 144.292 0.918846 144.884 1.13738C145.488 1.34306 145.989 1.62586 146.388 1.9858C146.786 2.33288 147.088 2.7121 147.294 3.12345C147.5 3.52195 147.609 3.91403 147.622 4.29967C147.622 4.38966 147.59 4.47964 147.525 4.56962C147.461 4.64675 147.358 4.68532 147.217 4.68532H146.195C146.105 4.68532 146.009 4.65961 145.906 4.60819C145.816 4.55677 145.745 4.46036 145.694 4.31896C145.616 3.79191 145.321 3.34841 144.807 2.98848C144.292 2.62854 143.624 2.44857 142.801 2.44857C141.966 2.44857 141.284 2.60926 140.757 2.93063C140.243 3.252 139.986 3.75334 139.986 4.43465C139.986 4.87171 140.108 5.23808 140.352 5.53374C140.597 5.81655 140.982 6.06721 141.509 6.28575C142.036 6.50428 142.724 6.73567 143.573 6.97991C144.601 7.26272 145.443 7.56481 146.099 7.88618C146.754 8.19469 147.236 8.58677 147.545 9.0624C147.866 9.52517 148.027 10.1229 148.027 10.8556C148.027 11.6655 147.815 12.3597 147.39 12.9381C146.966 13.5037 146.369 13.9408 145.597 14.2493C144.839 14.545 143.939 14.6928 142.898 14.6928Z" fill="#ECFEFF"/>
</svg>
