<svg width="29" height="29" viewBox="0 0 29 29" fill="none" xmlns="http://www.w3.org/2000/svg">
<path fill-rule="evenodd" clip-rule="evenodd" d="M22.9 14.6989C22.9 14.0784 22.8443 13.4818 22.7409 12.9091H14.5V16.2938H19.2091C19.0063 17.3875 18.3898 18.3142 17.4631 18.9347V21.1302H20.2909C21.9455 19.6069 22.9 17.3637 22.9 14.6989Z" fill="#4285F4"/>
<path fill-rule="evenodd" clip-rule="evenodd" d="M14.5 23.25C16.8625 23.25 18.8432 22.4665 20.2909 21.1302L17.4631 18.9347C16.6795 19.4597 15.6773 19.7699 14.5 19.7699C12.221 19.7699 10.292 18.2307 9.60396 16.1625H6.68066V18.4296C8.12044 21.2893 11.0795 23.25 14.5 23.25Z" fill="#34A853"/>
<path fill-rule="evenodd" clip-rule="evenodd" d="M9.60398 16.1625C9.42898 15.6375 9.32955 15.0768 9.32955 14.5C9.32955 13.9233 9.42898 13.3625 9.60398 12.8375V10.5705H6.68068C6.08807 11.7517 5.75 13.0881 5.75 14.5C5.75 15.912 6.08807 17.2483 6.68068 18.4296L9.60398 16.1625Z" fill="#FBBC05"/>
<path fill-rule="evenodd" clip-rule="evenodd" d="M14.5 9.23018C15.7847 9.23018 16.9381 9.67166 17.8449 10.5387L20.3546 8.02904C18.8392 6.61711 16.8585 5.75006 14.5 5.75006C11.0795 5.75006 8.12044 7.71086 6.68066 10.5705L9.60396 12.8376C10.292 10.7694 12.221 9.23018 14.5 9.23018Z" fill="#EA4335"/>
</svg>
