<svg width="160" height="83" viewBox="0 0 160 83" fill="none" xmlns="http://www.w3.org/2000/svg">
<path d="M62.4539 24.0287C63.6124 24.0287 64.5515 23.0896 64.5515 21.9312C64.5515 20.7727 63.6124 19.8336 62.4539 19.8336C61.2955 19.8336 60.3564 20.7727 60.3564 21.9312C60.3564 23.0896 61.2955 24.0287 62.4539 24.0287Z" fill="#18181B"/>
<path d="M98.6281 1.95459C100.068 1.95459 101.233 3.11989 101.233 4.55987C101.233 5.99984 100.068 7.16514 98.6281 7.16514C97.1882 7.16514 96.0312 5.99984 96.0312 4.55987C96.0312 3.11989 97.1965 1.95459 98.6281 1.95459Z" fill="#18181B"/>
<path d="M81.7563 2.04614C75.1307 2.04614 69.7537 7.41484 69.7537 14.0487C69.7537 20.6826 75.1224 26.0513 81.7563 26.0513C88.3902 26.0513 93.7589 20.6826 93.7589 14.0487C93.7589 7.41484 88.4734 2.04614 81.7563 2.04614Z" fill="#18181B"/>
<path d="M102.315 14.5482C102.915 14.5482 103.406 15.0393 103.406 15.6386C103.406 16.2379 102.915 16.729 102.315 16.729C101.716 16.729 101.225 16.2379 101.225 15.6386C101.225 15.0393 101.716 14.5482 102.315 14.5482Z" fill="#67E8F9"/>
<path d="M97.03 19.7504C97.6293 19.7504 98.1204 20.2415 98.1204 20.8408C98.1204 21.4401 97.6293 21.9311 97.03 21.9311C96.4307 21.9311 95.9396 21.4401 95.9396 20.8408C95.9396 20.2415 96.4307 19.7504 97.03 19.7504Z" fill="#67E8F9"/>
<path d="M81.5898 12.9501V11.5268C81.0904 11.61 80.8324 11.7765 80.8324 12.201C80.8324 12.3675 80.9156 12.534 80.9988 12.6172C81.1653 12.7004 81.3318 12.8669 81.5898 12.9501ZM82.1724 15.0477V16.3878C82.7634 16.3878 83.0131 16.1381 83.0131 15.7968C83.0131 15.6303 82.9299 15.4639 82.7634 15.3806C82.597 15.2141 82.4305 15.1309 82.1724 15.0477ZM84.7777 10.7694L83.937 12.2759C83.937 12.2759 83.8538 12.1927 83.7706 12.1095C83.6873 12.0262 83.5209 11.943 83.3544 11.8598C83.1879 11.7765 83.0215 11.6933 82.7634 11.61C82.597 11.5268 82.3472 11.5268 82.1724 11.4436V12.9501L82.5054 13.0334C82.9216 13.1166 83.2628 13.2831 83.5125 13.3663C83.8455 13.4496 84.1035 13.616 84.27 13.8657C84.5197 14.0322 84.6862 14.2819 84.7694 14.5399C84.8526 14.7896 84.9359 15.1309 84.9359 15.4639C84.9359 15.88 84.8526 16.3045 84.6862 16.5542C84.5197 16.804 84.3532 17.1452 84.0952 17.3117C83.8455 17.4782 83.5958 17.6446 83.2545 17.7279C82.9216 17.8111 82.5803 17.8943 82.2474 17.8943V19.2344H81.4899V17.8943C80.9822 17.8111 80.4828 17.7279 79.975 17.5614C79.3924 17.5614 78.9679 17.3117 78.5517 17.062L79.3924 15.4639C79.3924 15.4639 79.4756 15.5471 79.6421 15.6303C79.8086 15.7136 79.975 15.7968 80.1498 15.88C80.3163 15.9633 80.566 16.0465 80.824 16.1297C81.0737 16.213 81.3234 16.2962 81.5815 16.2962V14.7896L81.0821 14.7064C80.7491 14.6232 80.4079 14.4567 80.1581 14.3735C79.9084 14.207 79.6504 14.1238 79.4839 13.9573C79.3175 13.7908 79.151 13.6243 79.0678 13.3663C78.9845 13.1166 78.9013 12.8669 78.9013 12.6089C78.9013 12.1927 78.9845 11.8514 79.0678 11.6017C79.2342 11.2688 79.4007 11.0107 79.6504 10.8443C79.9001 10.5946 80.1581 10.4281 80.4911 10.3365C80.824 10.2533 81.1653 10.1701 81.4982 10.0868V8.91321H82.2557V10.0868C82.7551 10.1701 83.1796 10.2533 83.5958 10.4198C84.0952 10.3365 84.4365 10.5862 84.7694 10.7527L84.7777 10.7694Z" fill="#67E8F9"/>
<path d="M69.7537 1.95459C70.353 1.95459 70.8441 2.44568 70.8441 3.04498C70.8441 3.64427 70.353 4.13537 69.7537 4.13537C69.1544 4.13537 68.6633 3.64427 68.6633 3.04498C68.6633 2.44568 69.1544 1.95459 69.7537 1.95459Z" fill="#67E8F9"/>
<path d="M68.7465 25.0359C69.3458 25.0359 69.8369 25.527 69.8369 26.1263C69.8369 26.7256 69.3458 27.2167 68.7465 27.2167C68.1473 27.2167 67.6562 26.7256 67.6562 26.1263C67.6562 25.527 68.1473 25.0359 68.7465 25.0359Z" fill="#67E8F9"/>
<path d="M63.4611 6.15808C64.0604 6.15808 64.5514 6.64917 64.5514 7.24847C64.5514 7.84777 64.0604 8.33886 63.4611 8.33886C62.8618 8.33886 62.3707 7.84777 62.3707 7.24847C62.3707 6.64917 62.8618 6.15808 63.4611 6.15808Z" fill="#67E8F9"/>
<path d="M84.8609 39.3857H84.6945L74.0403 38.8862C73.4576 38.8862 73.0331 38.3785 73.0331 37.7959C73.0331 37.2132 73.5409 36.7887 74.1235 36.7887L84.7777 37.2881C85.7016 37.2881 86.4591 36.6971 86.5423 35.7816V35.3654C86.4591 34.7744 86.8752 34.275 87.4662 34.1918C88.0572 34.1085 88.5566 34.5247 88.6398 35.1157V35.9563C88.3901 37.8874 86.7088 39.394 84.8609 39.394V39.3857Z" fill="#67E8F9"/>
<path d="M66.0664 48.1172C65.8167 48.1172 65.5669 48.034 65.3089 47.7843L56.9188 39.3941C56.7523 39.2276 56.5858 38.8947 56.5858 38.6367C56.5858 38.3786 56.6691 38.1373 56.9188 37.8792L64.976 29.822C65.2257 29.5723 65.4837 29.4891 65.8167 29.4891L85.2022 31.5866C86.5423 31.6698 87.7243 32.5105 88.3069 33.6841L96.5306 26.0514C97.2881 25.294 98.2952 24.8778 99.3856 24.8778C100.476 24.8778 101.483 25.294 102.241 26.0514C102.998 26.8089 103.414 27.816 103.414 28.9064C103.414 29.9968 102.998 31.004 102.241 31.7614L88.1405 45.8615C87.974 46.028 87.6327 46.1945 87.383 46.1945L69.0878 45.5203L66.8238 47.7843C66.5741 48.034 66.3244 48.1172 66.0664 48.1172ZM59.0995 38.6283L65.9831 45.5119L67.9142 43.5809C68.0807 43.4144 68.4136 43.2479 68.6716 43.2479L86.9668 43.9221L100.642 30.2465C101.4 29.4891 101.4 28.2322 100.642 27.4748C100.31 27.1418 99.8018 26.8838 99.2191 26.8838C98.7114 26.8838 98.212 27.0503 97.7958 27.4748L88.3153 36.6224C87.8991 37.0385 87.2249 36.9553 86.8087 36.5391C86.559 36.2894 86.4758 35.8649 86.559 35.532V35.3655C86.4758 34.5248 85.8015 33.9422 84.9692 33.8589L66.083 31.7614L59.1162 38.645L59.0995 38.6283Z" fill="#67E8F9"/>
<path d="M81.7563 22.9384C76.887 22.9384 72.8584 18.9097 72.8584 14.0405C72.8584 13.4495 73.3578 12.9501 73.9488 12.9501C74.5397 12.9501 75.0391 13.4578 75.0391 14.0405C75.0391 17.8194 78.0606 20.8408 81.8395 20.8408C85.6184 20.8408 88.6399 17.8194 88.6399 14.0405C88.6399 10.2616 85.6184 7.2401 81.8395 7.2401C81.2485 7.2401 80.7491 6.73236 80.7491 6.14971C80.7491 5.56706 81.2485 5.05933 81.8395 5.05933C86.7088 5.05933 90.7374 9.08793 90.7374 13.9572C90.6542 18.9097 86.7088 22.9384 81.7563 22.9384Z" fill="#67E8F9"/>
<path d="M81.7563 27.1335C74.5397 27.1335 68.6633 21.257 68.6633 14.0405C68.6633 6.82395 74.5397 0.94751 81.7563 0.94751C88.9728 0.94751 94.8492 6.82395 94.8492 14.0405C94.8492 21.257 88.9728 27.1335 81.7563 27.1335ZM81.7563 3.04505C75.7134 3.04505 70.7608 7.99757 70.7608 14.0405C70.7608 20.0834 75.7134 25.0359 81.7563 25.0359C87.7992 25.0359 92.7517 20.0834 92.7517 14.0405C92.7517 7.99757 87.8824 3.04505 81.7563 3.04505Z" fill="#67E8F9"/>
<path d="M62.4539 25.036C60.6893 25.036 59.266 23.6127 59.266 21.8481C59.266 20.0835 60.6893 18.6602 62.4539 18.6602C64.2185 18.6602 65.6418 20.0835 65.6418 21.8481C65.6418 23.6127 64.1352 25.036 62.4539 25.036ZM62.4539 20.8409C61.8629 20.8409 61.3635 21.3403 61.3635 21.9313C61.3635 22.5223 61.8629 23.0217 62.4539 23.0217C63.0449 23.0217 63.5443 22.5223 63.5443 21.9313C63.5443 21.3403 62.9533 20.8409 62.4539 20.8409Z" fill="#67E8F9"/>
<path d="M98.6281 8.25559C96.6138 8.25559 94.9325 6.57423 94.9325 4.55992C94.9325 2.54562 96.6138 0.864258 98.6281 0.864258C100.642 0.864258 102.324 2.54562 102.324 4.55992C102.324 6.57423 100.642 8.25559 98.6281 8.25559ZM98.6281 3.04503C97.7874 3.04503 97.03 3.71924 97.03 4.64316C97.03 5.56707 97.7042 6.24128 98.6281 6.24128C99.4688 6.24128 100.226 5.56707 100.226 4.64316C100.226 3.71924 99.4688 3.04503 98.6281 3.04503Z" fill="#67E8F9"/>
<path d="M6.16055 77.1356C6.01915 77.1356 5.90988 77.0971 5.83275 77.0199C5.75562 76.9299 5.71706 76.8207 5.71706 76.6921V64.1008C5.71706 63.9594 5.75562 63.8501 5.83275 63.773C5.90988 63.683 6.01915 63.638 6.16055 63.638H14.1241C14.2655 63.638 14.3748 63.683 14.4519 63.773C14.5291 63.8501 14.5676 63.9594 14.5676 64.1008V64.8335C14.5676 64.9749 14.5291 65.0842 14.4519 65.1613C14.3748 65.2385 14.2655 65.277 14.1241 65.277H7.56816V69.4998H13.6999C13.8413 69.4998 13.9506 69.5448 14.0277 69.6348C14.1048 69.7119 14.1434 69.8212 14.1434 69.9626V70.6761C14.1434 70.8046 14.1048 70.9139 14.0277 71.0039C13.9506 71.081 13.8413 71.1195 13.6999 71.1195H7.56816V75.4966H14.2784C14.4198 75.4966 14.5291 75.5352 14.6062 75.6123C14.6833 75.6894 14.7219 75.7987 14.7219 75.9401V76.6921C14.7219 76.8207 14.6833 76.9299 14.6062 77.0199C14.5291 77.0971 14.4198 77.1356 14.2784 77.1356H6.16055ZM16.6973 77.1356C16.5944 77.1356 16.5044 77.0971 16.4273 77.0199C16.3502 76.9428 16.3116 76.8528 16.3116 76.75C16.3116 76.6857 16.318 76.615 16.3309 76.5379L21.1129 64.0622C21.1643 63.9337 21.235 63.8308 21.325 63.7537C21.415 63.6766 21.55 63.638 21.7299 63.638H23.0411C23.2082 63.638 23.3368 63.6766 23.4268 63.7537C23.5296 63.8308 23.6067 63.9337 23.6582 64.0622L28.4209 76.5379C28.4466 76.615 28.4595 76.6857 28.4595 76.75C28.4595 76.8528 28.4209 76.9428 28.3438 77.0199C28.2666 77.0971 28.1766 77.1356 28.0738 77.1356H27.0904C26.9362 77.1356 26.8205 77.0971 26.7433 77.0199C26.6791 76.9428 26.6341 76.8721 26.6084 76.8078L25.5478 74.0697H19.2232L18.1627 76.8078C18.1499 76.8721 18.1049 76.9428 18.0277 77.0199C17.9506 77.0971 17.8349 77.1356 17.6807 77.1356H16.6973ZM19.7824 72.4115H24.9886L22.3855 65.5663L19.7824 72.4115ZM34.8642 77.3284C33.7458 77.3284 32.8074 77.1613 32.049 76.8271C31.2905 76.48 30.7056 76.0365 30.2943 75.4966C29.8958 74.9439 29.6837 74.359 29.658 73.7419C29.658 73.6391 29.6965 73.5491 29.7737 73.472C29.8636 73.382 29.9665 73.337 30.0822 73.337H31.0656C31.2198 73.337 31.3355 73.3756 31.4127 73.4527C31.4898 73.5298 31.5412 73.6198 31.5669 73.7227C31.6312 74.0312 31.7854 74.3397 32.0297 74.6482C32.2868 74.9439 32.6403 75.1945 33.0902 75.4002C33.553 75.593 34.1443 75.6894 34.8642 75.6894C35.9697 75.6894 36.7796 75.4966 37.2938 75.111C37.8208 74.7125 38.0843 74.1854 38.0843 73.5298C38.0843 73.0799 37.9429 72.72 37.6601 72.45C37.3902 72.1672 36.9724 71.9165 36.4068 71.698C35.8412 71.4795 35.1084 71.2417 34.2086 70.9846C33.2702 70.7146 32.4925 70.419 31.8754 70.0976C31.2584 69.7762 30.7956 69.3777 30.4871 68.9021C30.1914 68.4265 30.0436 67.8223 30.0436 67.0896C30.0436 66.3954 30.23 65.7784 30.6028 65.2385C30.9756 64.6857 31.5091 64.2486 32.2032 63.9273C32.9102 63.6059 33.7651 63.4452 34.7678 63.4452C35.5648 63.4452 36.2589 63.5545 36.8503 63.773C37.4544 63.9787 37.9558 64.2615 38.3543 64.6214C38.7528 64.9685 39.0549 65.3477 39.2605 65.7591C39.4662 66.1576 39.5755 66.5496 39.5883 66.9353C39.5883 67.0253 39.5562 67.1153 39.4919 67.2052C39.4277 67.2824 39.3248 67.3209 39.1834 67.3209H38.1615C38.0715 67.3209 37.9751 67.2952 37.8722 67.2438C37.7822 67.1924 37.7115 67.096 37.6601 66.9546C37.583 66.4275 37.2873 65.984 36.7731 65.6241C36.2589 65.2642 35.5905 65.0842 34.7678 65.0842C33.9322 65.0842 33.2509 65.2449 32.7238 65.5663C32.2097 65.8876 31.9526 66.389 31.9526 67.0703C31.9526 67.5073 32.0747 67.8737 32.3189 68.1694C32.5632 68.4522 32.9488 68.7028 33.4759 68.9214C34.0029 69.1399 34.6906 69.3713 35.5391 69.6155C36.5675 69.8983 37.4094 70.2004 38.065 70.5218C38.7206 70.8303 39.2027 71.2224 39.5112 71.698C39.8326 72.1608 39.9933 72.7585 39.9933 73.4913C39.9933 74.3011 39.7812 74.9953 39.357 75.5738C38.9327 76.1394 38.335 76.5764 37.5637 76.885C36.8053 77.1806 35.9054 77.3284 34.8642 77.3284ZM46.2731 77.1356C46.1446 77.1356 46.0353 77.0971 45.9453 77.0199C45.8682 76.9299 45.8296 76.8207 45.8296 76.6921V72.1415L41.1826 64.2743C41.1697 64.2358 41.1569 64.1972 41.144 64.1586C41.1312 64.1201 41.1247 64.0751 41.1247 64.0237C41.1247 63.9208 41.1633 63.8308 41.2404 63.7537C41.3176 63.6766 41.4076 63.638 41.5104 63.638H42.5131C42.6288 63.638 42.7316 63.6702 42.8216 63.7344C42.9116 63.7859 42.9758 63.863 43.0144 63.9658L46.7745 70.2133L50.5345 63.9658C50.5988 63.863 50.6695 63.7859 50.7466 63.7344C50.8366 63.6702 50.9394 63.638 51.0551 63.638H52.0385C52.1542 63.638 52.2506 63.6766 52.3278 63.7537C52.4049 63.8308 52.4434 63.9208 52.4434 64.0237C52.4434 64.0751 52.437 64.1201 52.4242 64.1586C52.4113 64.1972 52.392 64.2358 52.3663 64.2743L47.7386 72.1415V76.6921C47.7386 76.8207 47.6936 76.9299 47.6036 77.0199C47.5265 77.0971 47.4172 77.1356 47.2758 77.1356H46.2731ZM59.699 77.1356C59.5576 77.1356 59.4483 77.0971 59.3712 77.0199C59.2941 76.9299 59.2555 76.8207 59.2555 76.6921V64.1008C59.2555 63.9594 59.2941 63.8501 59.3712 63.773C59.4483 63.683 59.5576 63.638 59.699 63.638H67.6626C67.804 63.638 67.9133 63.683 67.9904 63.773C68.0675 63.8501 68.1061 63.9594 68.1061 64.1008V64.8335C68.1061 64.9749 68.0675 65.0842 67.9904 65.1613C67.9133 65.2385 67.804 65.277 67.6626 65.277H61.1066V69.4998H67.2384C67.3798 69.4998 67.4891 69.5448 67.5662 69.6348C67.6433 69.7119 67.6819 69.8212 67.6819 69.9626V70.6761C67.6819 70.8046 67.6433 70.9139 67.5662 71.0039C67.4891 71.081 67.3798 71.1195 67.2384 71.1195H61.1066V75.4966H67.8168C67.9583 75.4966 68.0675 75.5352 68.1446 75.6123C68.2218 75.6894 68.2603 75.7987 68.2603 75.9401V76.6921C68.2603 76.8207 68.2218 76.9299 68.1446 77.0199C68.0675 77.0971 67.9583 77.1356 67.8168 77.1356H59.699ZM70.3321 77.1356C70.2293 77.1356 70.1329 77.0971 70.0429 77.0199C69.9658 76.9428 69.9272 76.8528 69.9272 76.75C69.9272 76.6986 69.9336 76.6536 69.9465 76.615C69.9722 76.5636 69.9915 76.525 70.0043 76.4993L74.42 70.2711L70.2164 64.2743C70.1779 64.1972 70.1586 64.1137 70.1586 64.0237C70.1586 63.9208 70.1972 63.8308 70.2743 63.7537C70.3514 63.6766 70.4414 63.638 70.5442 63.638H71.7012C71.8297 63.638 71.9326 63.6702 72.0097 63.7344C72.0868 63.7859 72.1575 63.863 72.2218 63.9658L75.6155 68.7864L78.9899 63.9658C79.0413 63.863 79.1056 63.7859 79.1827 63.7344C79.2727 63.6702 79.3755 63.638 79.4912 63.638H80.5903C80.6931 63.638 80.7831 63.6766 80.8603 63.7537C80.9374 63.8308 80.976 63.9208 80.976 64.0237C80.976 64.1137 80.9502 64.1972 80.8988 64.2743L76.7531 70.2904L81.1495 76.4993C81.1752 76.525 81.1945 76.5636 81.2073 76.615C81.2202 76.6536 81.2266 76.6986 81.2266 76.75C81.2266 76.8528 81.1881 76.9428 81.1109 77.0199C81.0338 77.0971 80.9374 77.1356 80.8217 77.1356H79.6455C79.5298 77.1356 79.4269 77.1035 79.337 77.0392C79.2598 76.9749 79.1891 76.9042 79.1249 76.8271L75.5384 71.8137L71.9711 76.8271C71.9069 76.9042 71.8362 76.9749 71.759 77.0392C71.6819 77.1035 71.5791 77.1356 71.4505 77.1356H70.3321ZM83.9804 77.1356C83.839 77.1356 83.7297 77.0971 83.6526 77.0199C83.5754 76.9299 83.5369 76.8207 83.5369 76.6921V64.1008C83.5369 63.9594 83.5754 63.8501 83.6526 63.773C83.7297 63.683 83.839 63.638 83.9804 63.638H88.8781C89.8293 63.638 90.652 63.7923 91.3462 64.1008C92.0532 64.4093 92.5996 64.8721 92.9852 65.4891C93.3708 66.0933 93.5637 66.8517 93.5637 67.7644C93.5637 68.6771 93.3708 69.4356 92.9852 70.0397C92.5996 70.6439 92.0532 71.1003 91.3462 71.4088C90.652 71.7173 89.8293 71.8716 88.8781 71.8716H85.4651V76.6921C85.4651 76.8207 85.4201 76.9299 85.3301 77.0199C85.253 77.0971 85.1437 77.1356 85.0023 77.1356H83.9804ZM85.4458 70.2518H88.7817C89.7329 70.2518 90.4464 70.0397 90.922 69.6155C91.3976 69.1913 91.6354 68.5743 91.6354 67.7644C91.6354 66.9674 91.4041 66.3504 90.9413 65.9133C90.4785 65.4763 89.7586 65.2577 88.7817 65.2577H85.4458V70.2518ZM96.5447 77.1356C96.4033 77.1356 96.2941 77.0971 96.2169 77.0199C96.1398 76.9299 96.1012 76.8207 96.1012 76.6921V64.1008C96.1012 63.9594 96.1398 63.8501 96.2169 63.773C96.2941 63.683 96.4033 63.638 96.5447 63.638H104.508C104.65 63.638 104.759 63.683 104.836 63.773C104.913 63.8501 104.952 63.9594 104.952 64.1008V64.8335C104.952 64.9749 104.913 65.0842 104.836 65.1613C104.759 65.2385 104.65 65.277 104.508 65.277H97.9523V69.4998H104.084C104.226 69.4998 104.335 69.5448 104.412 69.6348C104.489 69.7119 104.528 69.8212 104.528 69.9626V70.6761C104.528 70.8046 104.489 70.9139 104.412 71.0039C104.335 71.081 104.226 71.1195 104.084 71.1195H97.9523V75.4966H104.663C104.804 75.4966 104.913 75.5352 104.99 75.6123C105.068 75.6894 105.106 75.7987 105.106 75.9401V76.6921C105.106 76.8207 105.068 76.9299 104.99 77.0199C104.913 77.0971 104.804 77.1356 104.663 77.1356H96.5447ZM108.431 77.1356C108.29 77.1356 108.181 77.0971 108.103 77.0199C108.026 76.9299 107.988 76.8207 107.988 76.6921V64.1008C107.988 63.9594 108.026 63.8501 108.103 63.773C108.181 63.683 108.29 63.638 108.431 63.638H109.318C109.472 63.638 109.588 63.6766 109.665 63.7537C109.742 63.818 109.787 63.8694 109.8 63.908L116.202 73.7419V64.1008C116.202 63.9594 116.241 63.8501 116.318 63.773C116.395 63.683 116.504 63.638 116.645 63.638H117.571C117.712 63.638 117.822 63.683 117.899 63.773C117.989 63.8501 118.034 63.9594 118.034 64.1008V76.6728C118.034 76.8014 117.989 76.9107 117.899 77.0006C117.822 77.0906 117.719 77.1356 117.59 77.1356H116.665C116.523 77.1356 116.414 77.0971 116.337 77.0199C116.273 76.9428 116.228 76.8914 116.202 76.8657L109.82 67.1281V76.6921C109.82 76.8207 109.775 76.9299 109.685 77.0199C109.607 77.0971 109.498 77.1356 109.357 77.1356H108.431ZM125.907 77.3284C124.789 77.3284 123.851 77.1613 123.092 76.8271C122.334 76.48 121.749 76.0365 121.338 75.4966C120.939 74.9439 120.727 74.359 120.701 73.7419C120.701 73.6391 120.74 73.5491 120.817 73.472C120.907 73.382 121.01 73.337 121.125 73.337H122.109C122.263 73.337 122.379 73.3756 122.456 73.4527C122.533 73.5298 122.584 73.6198 122.61 73.7227C122.674 74.0312 122.829 74.3397 123.073 74.6482C123.33 74.9439 123.684 75.1945 124.133 75.4002C124.596 75.593 125.188 75.6894 125.907 75.6894C127.013 75.6894 127.823 75.4966 128.337 75.111C128.864 74.7125 129.128 74.1854 129.128 73.5298C129.128 73.0799 128.986 72.72 128.703 72.45C128.433 72.1672 128.016 71.9165 127.45 71.698C126.884 71.4795 126.152 71.2417 125.252 70.9846C124.313 70.7146 123.536 70.419 122.919 70.0976C122.302 69.7762 121.839 69.3777 121.53 68.9021C121.235 68.4265 121.087 67.8223 121.087 67.0896C121.087 66.3954 121.273 65.7784 121.646 65.2385C122.019 64.6857 122.552 64.2486 123.246 63.9273C123.953 63.6059 124.808 63.4452 125.811 63.4452C126.608 63.4452 127.302 63.5545 127.894 63.773C128.498 63.9787 128.999 64.2615 129.398 64.6214C129.796 64.9685 130.098 65.3477 130.304 65.7591C130.509 66.1576 130.619 66.5496 130.632 66.9353C130.632 67.0253 130.599 67.1153 130.535 67.2052C130.471 67.2824 130.368 67.3209 130.227 67.3209H129.205C129.115 67.3209 129.018 67.2952 128.915 67.2438C128.825 67.1924 128.755 67.096 128.703 66.9546C128.626 66.4275 128.331 65.984 127.816 65.6241C127.302 65.2642 126.634 65.0842 125.811 65.0842C124.975 65.0842 124.294 65.2449 123.767 65.5663C123.253 65.8876 122.996 66.389 122.996 67.0703C122.996 67.5073 123.118 67.8737 123.362 68.1694C123.606 68.4522 123.992 68.7028 124.519 68.9214C125.046 69.1399 125.734 69.3713 126.582 69.6155C127.611 69.8983 128.453 70.2004 129.108 70.5218C129.764 70.8303 130.246 71.2224 130.554 71.698C130.876 72.1608 131.037 72.7585 131.037 73.4913C131.037 74.3011 130.824 74.9953 130.4 75.5738C129.976 76.1394 129.378 76.5764 128.607 76.885C127.849 77.1806 126.949 77.3284 125.907 77.3284ZM134.2 77.1356C134.059 77.1356 133.95 77.0971 133.872 77.0199C133.795 76.9299 133.757 76.8207 133.757 76.6921V64.1008C133.757 63.9594 133.795 63.8501 133.872 63.773C133.95 63.683 134.059 63.638 134.2 63.638H142.164C142.305 63.638 142.414 63.683 142.492 63.773C142.569 63.8501 142.607 63.9594 142.607 64.1008V64.8335C142.607 64.9749 142.569 65.0842 142.492 65.1613C142.414 65.2385 142.305 65.277 142.164 65.277H135.608V69.4998H141.74C141.881 69.4998 141.99 69.5448 142.067 69.6348C142.144 69.7119 142.183 69.8212 142.183 69.9626V70.6761C142.183 70.8046 142.144 70.9139 142.067 71.0039C141.99 71.081 141.881 71.1195 141.74 71.1195H135.608V75.4966H142.318C142.459 75.4966 142.569 75.5352 142.646 75.6123C142.723 75.6894 142.762 75.7987 142.762 75.9401V76.6921C142.762 76.8207 142.723 76.9299 142.646 77.0199C142.569 77.0971 142.459 77.1356 142.318 77.1356H134.2ZM149.982 77.3284C148.863 77.3284 147.925 77.1613 147.166 76.8271C146.408 76.48 145.823 76.0365 145.412 75.4966C145.013 74.9439 144.801 74.359 144.775 73.7419C144.775 73.6391 144.814 73.5491 144.891 73.472C144.981 73.382 145.084 73.337 145.2 73.337H146.183C146.337 73.337 146.453 73.3756 146.53 73.4527C146.607 73.5298 146.659 73.6198 146.684 73.7227C146.749 74.0312 146.903 74.3397 147.147 74.6482C147.404 74.9439 147.758 75.1945 148.208 75.4002C148.67 75.593 149.262 75.6894 149.982 75.6894C151.087 75.6894 151.897 75.4966 152.411 75.111C152.938 74.7125 153.202 74.1854 153.202 73.5298C153.202 73.0799 153.06 72.72 152.778 72.45C152.508 72.1672 152.09 71.9165 151.524 71.698C150.959 71.4795 150.226 71.2417 149.326 70.9846C148.388 70.7146 147.61 70.419 146.993 70.0976C146.376 69.7762 145.913 69.3777 145.605 68.9021C145.309 68.4265 145.161 67.8223 145.161 67.0896C145.161 66.3954 145.348 65.7784 145.72 65.2385C146.093 64.6857 146.627 64.2486 147.321 63.9273C148.028 63.6059 148.883 63.4452 149.885 63.4452C150.682 63.4452 151.376 63.5545 151.968 63.773C152.572 63.9787 153.073 64.2615 153.472 64.6214C153.87 64.9685 154.172 65.3477 154.378 65.7591C154.584 66.1576 154.693 66.5496 154.706 66.9353C154.706 67.0253 154.674 67.1153 154.609 67.2052C154.545 67.2824 154.442 67.3209 154.301 67.3209H153.279C153.189 67.3209 153.093 67.2952 152.99 67.2438C152.9 67.1924 152.829 67.096 152.778 66.9546C152.7 66.4275 152.405 65.984 151.891 65.6241C151.376 65.2642 150.708 65.0842 149.885 65.0842C149.05 65.0842 148.368 65.2449 147.841 65.5663C147.327 65.8876 147.07 66.389 147.07 67.0703C147.07 67.5073 147.192 67.8737 147.436 68.1694C147.681 68.4522 148.066 68.7028 148.593 68.9214C149.12 69.1399 149.808 69.3713 150.657 69.6155C151.685 69.8983 152.527 70.2004 153.183 70.5218C153.838 70.8303 154.32 71.2224 154.629 71.698C154.95 72.1608 155.111 72.7585 155.111 73.4913C155.111 74.3011 154.899 74.9953 154.474 75.5738C154.05 76.1394 153.452 76.5764 152.681 76.885C151.923 77.1806 151.023 77.3284 149.982 77.3284Z" fill="#67E8F9"/>
</svg>
