<svg width="22" height="22" viewBox="0 0 22 22" fill="none" xmlns="http://www.w3.org/2000/svg">
<path d="M2.66298 10.7903C3.18868 10.7903 3.61485 10.3642 3.61485 9.83845C3.61485 9.31275 3.18868 8.88658 2.66298 8.88658C2.13727 8.88658 1.71111 9.31275 1.71111 9.83845C1.71111 10.3642 2.13727 10.7903 2.66298 10.7903Z" fill="#27272A"/>
<path d="M19.079 0.772972C19.7325 0.772972 20.2613 1.30179 20.2613 1.95526C20.2613 2.60873 19.7325 3.13755 19.079 3.13755C18.4255 3.13755 17.9005 2.60873 17.9005 1.95526C17.9005 1.30179 18.4293 0.772972 19.079 0.772972Z" fill="#27272A"/>
<path d="M11.4225 0.814575C8.41577 0.814575 5.97565 3.25092 5.97565 6.2614C5.97565 9.27189 8.41199 11.7082 11.4225 11.7082C14.433 11.7082 16.8693 9.27189 16.8693 6.2614C16.8693 3.25092 14.4707 0.814575 11.4225 0.814575Z" fill="#27272A"/>
<path d="M20.7523 6.48804C21.0243 6.48804 21.2472 6.7109 21.2472 6.98287C21.2472 7.25483 21.0243 7.47769 20.7523 7.47769C20.4804 7.47769 20.2575 7.25483 20.2575 6.98287C20.2575 6.7109 20.4804 6.48804 20.7523 6.48804Z" fill="#ECFEFF"/>
<path d="M18.3538 8.84883C18.6257 8.84883 18.8486 9.07169 18.8486 9.34365C18.8486 9.61562 18.6257 9.83848 18.3538 9.83848C18.0818 9.83848 17.8589 9.61562 17.8589 9.34365C17.8589 9.07169 18.0818 8.84883 18.3538 8.84883Z" fill="#ECFEFF"/>
<path d="M11.3469 5.76283V5.11692C11.1203 5.15469 11.0032 5.23024 11.0032 5.42288C11.0032 5.49842 11.041 5.57397 11.0787 5.61174C11.1543 5.64951 11.2298 5.72506 11.3469 5.76283ZM11.6113 6.71471V7.32285C11.8795 7.32285 11.9928 7.20953 11.9928 7.05466C11.9928 6.97912 11.9551 6.90357 11.8795 6.8658C11.804 6.79025 11.7284 6.75248 11.6113 6.71471ZM12.7936 4.77319L12.4121 5.45687C12.4121 5.45687 12.3743 5.4191 12.3366 5.38133C12.2988 5.34356 12.2232 5.30578 12.1477 5.26801C12.0722 5.23024 11.9966 5.19246 11.8795 5.15469C11.804 5.11692 11.6907 5.11692 11.6113 5.07915V5.76283L11.7624 5.80061C11.9513 5.83838 12.1062 5.91392 12.2195 5.9517C12.3706 5.98947 12.4877 6.06501 12.5632 6.17833C12.6765 6.25388 12.7521 6.3672 12.7898 6.48429C12.8276 6.59761 12.8654 6.75248 12.8654 6.90357C12.8654 7.09243 12.8276 7.28507 12.7521 7.39839C12.6765 7.51171 12.601 7.66658 12.4839 7.74212C12.3706 7.81767 12.2572 7.89322 12.1024 7.93099C11.9513 7.96876 11.7964 8.00653 11.6453 8.00653V8.61468H11.3016V8.00653C11.0712 7.96876 10.8445 7.93099 10.6141 7.85544C10.3497 7.85544 10.1571 7.74212 9.96822 7.62881L10.3497 6.90357C10.3497 6.90357 10.3875 6.94134 10.463 6.97912C10.5386 7.01689 10.6141 7.05466 10.6935 7.09243C10.769 7.13021 10.8823 7.16798 10.9994 7.20575C11.1127 7.24352 11.226 7.2813 11.3431 7.2813V6.59761L11.1165 6.55984C10.9654 6.52207 10.8105 6.44652 10.6972 6.40875C10.5839 6.3332 10.4668 6.29543 10.3913 6.21988C10.3157 6.14434 10.2402 6.06879 10.2024 5.9517C10.1646 5.83838 10.1269 5.72506 10.1269 5.60796C10.1269 5.4191 10.1646 5.26423 10.2024 5.15091C10.278 4.99982 10.3535 4.88273 10.4668 4.80718C10.5801 4.69386 10.6972 4.61832 10.8483 4.57677C10.9994 4.539 11.1543 4.50122 11.3054 4.46345V3.93085H11.6491V4.46345C11.8757 4.50122 12.0684 4.539 12.2572 4.61454C12.4839 4.57677 12.6387 4.69009 12.7898 4.76563L12.7936 4.77319Z" fill="#ECFEFF"/>
<path d="M5.97564 0.772972C6.24761 0.772972 6.47047 0.995831 6.47047 1.2678C6.47047 1.53976 6.24761 1.76262 5.97564 1.76262C5.70368 1.76262 5.48082 1.53976 5.48082 1.2678C5.48082 0.995831 5.70368 0.772972 5.97564 0.772972Z" fill="#ECFEFF"/>
<path d="M5.5186 11.2474C5.79056 11.2474 6.01342 11.4703 6.01342 11.7422C6.01342 12.0142 5.79056 12.237 5.5186 12.237C5.24663 12.237 5.02377 12.0142 5.02377 11.7422C5.02377 11.4703 5.24663 11.2474 5.5186 11.2474Z" fill="#ECFEFF"/>
<path d="M3.12001 2.68056C3.39198 2.68056 3.61484 2.90342 3.61484 3.17539C3.61484 3.44735 3.39198 3.67021 3.12001 3.67021C2.84805 3.67021 2.62519 3.44735 2.62519 3.17539C2.62519 2.90342 2.84805 2.68056 3.12001 2.68056Z" fill="#ECFEFF"/>
<path d="M12.8314 17.7594H12.7558L7.92092 17.5328C7.65652 17.5328 7.46387 17.3024 7.46387 17.038C7.46387 16.7736 7.69429 16.5809 7.9587 16.5809L12.7936 16.8075C13.2129 16.8075 13.5566 16.5394 13.5944 16.1239V15.935C13.5566 15.6668 13.7455 15.4402 14.0137 15.4024C14.2819 15.3646 14.5085 15.5535 14.5463 15.8217V16.2032C14.4329 17.0795 13.6699 17.7632 12.8314 17.7632V17.7594Z" fill="#ECFEFF"/>
<path d="M4.30232 21.7218C4.189 21.7218 4.07568 21.684 3.95858 21.5707L0.151091 17.7632C0.0755455 17.6877 0 17.5366 0 17.4195C0 17.3024 0.0377728 17.1929 0.151091 17.0758L3.80749 13.4194C3.92081 13.306 4.03791 13.2683 4.189 13.2683L12.9863 14.2201C13.5944 14.2579 14.1308 14.6394 14.3952 15.172L18.1271 11.7083C18.4709 11.3645 18.9279 11.1757 19.4227 11.1757C19.9176 11.1757 20.3746 11.3645 20.7183 11.7083C21.0621 12.052 21.2509 12.509 21.2509 13.0039C21.2509 13.4987 21.0621 13.9557 20.7183 14.2995L14.3196 20.6982C14.2441 20.7737 14.0892 20.8493 13.9759 20.8493L5.67347 20.5433L4.64605 21.5707C4.53273 21.684 4.41941 21.7218 4.30232 21.7218ZM1.14074 17.4157L4.26454 20.5395L5.14087 19.6632C5.21642 19.5876 5.36751 19.5121 5.4846 19.5121L13.7871 19.8181L19.9931 13.612C20.3368 13.2683 20.3368 12.6979 19.9931 12.3542C19.842 12.2031 19.6116 12.086 19.3472 12.086C19.1168 12.086 18.8901 12.1615 18.7013 12.3542L14.399 16.5054C14.2101 16.6943 13.9041 16.6565 13.7153 16.4676C13.602 16.3543 13.5642 16.1617 13.602 16.0106V15.935C13.5642 15.5535 13.2582 15.2891 12.8805 15.2513L4.30987 14.2995L1.14829 17.4233L1.14074 17.4157Z" fill="#ECFEFF"/>
<path d="M11.4225 10.2956C9.21276 10.2956 7.38456 8.46735 7.38456 6.25765C7.38456 5.98946 7.6112 5.76282 7.87938 5.76282C8.14757 5.76282 8.37421 5.99324 8.37421 6.25765C8.37421 7.97253 9.74536 9.34368 11.4602 9.34368C13.1751 9.34368 14.5463 7.97253 14.5463 6.25765C14.5463 4.54277 13.1751 3.17161 11.4602 3.17161C11.1921 3.17161 10.9654 2.9412 10.9654 2.67679C10.9654 2.41238 11.1921 2.18197 11.4602 2.18197C13.6699 2.18197 15.4981 4.01017 15.4981 6.21987C15.4604 8.46735 13.6699 10.2956 11.4225 10.2956Z" fill="#ECFEFF"/>
<path d="M11.4225 12.1993C8.14758 12.1993 5.48082 9.53251 5.48082 6.25761C5.48082 2.98271 8.14758 0.315956 11.4225 0.315956C14.6974 0.315956 17.3641 2.98271 17.3641 6.25761C17.3641 9.53251 14.6974 12.1993 11.4225 12.1993ZM11.4225 1.26783C8.68017 1.26783 6.43269 3.51531 6.43269 6.25761C6.43269 8.99991 8.68017 11.2474 11.4225 11.2474C14.1648 11.2474 16.4123 8.99991 16.4123 6.25761C16.4123 3.51531 14.2025 1.26783 11.4225 1.26783Z" fill="#ECFEFF"/>
<path d="M2.66296 11.2474C1.86218 11.2474 1.21626 10.6015 1.21626 9.80073C1.21626 8.99995 1.86218 8.35403 2.66296 8.35403C3.46374 8.35403 4.10966 8.99995 4.10966 9.80073C4.10966 10.6015 3.42597 11.2474 2.66296 11.2474ZM2.66296 9.34368C2.39477 9.34368 2.16814 9.57032 2.16814 9.8385C2.16814 10.1067 2.39477 10.3333 2.66296 10.3333C2.93115 10.3333 3.15778 10.1067 3.15778 9.8385C3.15778 9.57032 2.8896 9.34368 2.66296 9.34368Z" fill="#ECFEFF"/>
<path d="M19.079 3.63242C18.1649 3.63242 17.4019 2.86941 17.4019 1.95531C17.4019 1.04121 18.1649 0.278198 19.079 0.278198C19.9931 0.278198 20.7561 1.04121 20.7561 1.95531C20.7561 2.86941 19.9931 3.63242 19.079 3.63242ZM19.079 1.26784C18.6975 1.26784 18.3538 1.5738 18.3538 1.99308C18.3538 2.41236 18.6597 2.71832 19.079 2.71832C19.4605 2.71832 19.8042 2.41236 19.8042 1.99308C19.8042 1.5738 19.4605 1.26784 19.079 1.26784Z" fill="#ECFEFF"/>
</svg>
